HIERARCHY
ROOT Hips
{
	OFFSET -14.64140 90.27770 -84.91600
	CHANNELS 6 Xposition Yposition Zposition Zrotation Xrotation Yrotation
	JOINT Spine
	{
		OFFSET 0.00000 13.20850 -1.60436
		CHANNELS 3 Zrotation Xrotation Yrotation
		JOINT Spine1
		{
			OFFSET 0.00000 8.61716 0.00000
			CHANNELS 3 Zrotation Xrotation Yrotation
			JOINT Spine2
			{
				OFFSET 0.00000 8.61717 0.00000
				CHANNELS 3 Zrotation Xrotation Yrotation
				JOINT Spine3
				{
					OFFSET 0.00000 8.61717 0.00000
					CHANNELS 3 Zrotation Xrotation Yrotation
					JOINT Neck
					{
						OFFSET 0.00000 11.07920 1.10792
						CHANNELS 3 Zrotation Xrotation Yrotation
						JOINT Neck1
						{
							OFFSET 0.00000 7.08032 0.00000
							CHANNELS 3 Zrotation Xrotation Yrotation
							JOINT Head
							{
								OFFSET 0.00000 7.08031 0.00000
								CHANNELS 3 Zrotation Xrotation Yrotation
								End site
								{
									OFFSET 0.00000 0.00000 0.00000
								}
							}
						}
					}
					JOINT RightShoulder
					{
						OFFSET -0.01000 7.91373 5.19711
						CHANNELS 3 Zrotation Xrotation Yrotation
						JOINT RightArm
						{
							OFFSET -18.41580 0.00000 0.00000
							CHANNELS 3 Zrotation Xrotation Yrotation
							JOINT RightForeArm
							{
								OFFSET -29.11090 0.00000 0.00000
								CHANNELS 3 Zrotation Xrotation Yrotation
								JOINT RightHand
								{
									OFFSET -24.65040 0.00000 0.00000
									CHANNELS 3 Zrotation Xrotation Yrotation
									JOINT RightHandThumb1
									{
										OFFSET -5.35114 -0.85590 3.97906
										CHANNELS 3 Zrotation Xrotation Yrotation
										JOINT RightHandThumb2
										{
											OFFSET -4.52789 0.00000 0.00000
											CHANNELS 3 Zrotation Xrotation Yrotation
											JOINT RightHandThumb3
											{
												OFFSET -2.46976 0.00000 0.00000
												CHANNELS 3 Zrotation Xrotation Yrotation
												End site
												{
													OFFSET 0.00000 0.00000 0.00000
												}
											}
										}
									}
									JOINT RightHandIndex1
									{
										OFFSET -14.26970 0.00000 2.88139
										CHANNELS 3 Zrotation Xrotation Yrotation
										JOINT RightHandIndex2
										{
											OFFSET -5.48836 0.00000 0.00000
											CHANNELS 3 Zrotation Xrotation Yrotation
											JOINT RightHandIndex3
											{
												OFFSET -3.01859 0.00000 0.00000
												CHANNELS 3 Zrotation Xrotation Yrotation
												End site
												{
													OFFSET 0.00000 0.00000 0.00000
												}
											}
										}
									}
									JOINT RightHandMiddle1
									{
										OFFSET -14.26970 0.00000 -0.09147
										CHANNELS 3 Zrotation Xrotation Yrotation
										JOINT RightHandMiddle2
										{
											OFFSET -6.17441 0.00000 0.00000
											CHANNELS 3 Zrotation Xrotation Yrotation
											JOINT RightHandMiddle3
											{
												OFFSET -3.56743 0.00000 0.00000
												CHANNELS 3 Zrotation Xrotation Yrotation
												End site
												{
													OFFSET 0.00000 0.00000 0.00000
												}
											}
										}
									}
									JOINT RightHandRing1
									{
										OFFSET -12.69180 0.00000 -3.06433
										CHANNELS 3 Zrotation Xrotation Yrotation
										JOINT RightHandRing2
										{
											OFFSET -5.62556 0.00000 0.00000
											CHANNELS 3 Zrotation Xrotation Yrotation
											JOINT RightHandRing3
											{
												OFFSET -3.56744 0.00000 0.00000
												CHANNELS 3 Zrotation Xrotation Yrotation
												End site
												{
													OFFSET 0.00000 0.00000 0.00000
												}
											}
										}
									}
									JOINT RightHandPinky1
									{
										OFFSET -11.11390 0.00000 -6.03719
										CHANNELS 3 Zrotation Xrotation Yrotation
										JOINT RightHandPinky2
										{
											OFFSET -4.52789 0.00000 0.00000
											CHANNELS 3 Zrotation Xrotation Yrotation
											JOINT RightHandPinky3
											{
												OFFSET -2.46976 0.00000 0.00000
												CHANNELS 3 Zrotation Xrotation Yrotation
												End site
												{
													OFFSET 0.00000 0.00000 0.00000
												}
											}
										}
									}
								}
							}
						}
					}
					JOINT LeftShoulder
					{
						OFFSET 0.01000 7.91373 5.19711
						CHANNELS 3 Zrotation Xrotation Yrotation
						JOINT LeftArm
						{
							OFFSET 18.41580 0.00000 0.00000
							CHANNELS 3 Zrotation Xrotation Yrotation
							JOINT LeftForeArm
							{
								OFFSET 29.11090 0.00000 0.00000
								CHANNELS 3 Zrotation Xrotation Yrotation
								JOINT LeftHand
								{
									OFFSET 24.65040 0.00000 0.00000
									CHANNELS 3 Zrotation Xrotation Yrotation
									JOINT LeftHandThumb1
									{
										OFFSET 5.35114 -0.85590 3.97906
										CHANNELS 3 Zrotation Xrotation Yrotation
										JOINT LeftHandThumb2
										{
											OFFSET 4.52789 0.00000 0.00000
											CHANNELS 3 Zrotation Xrotation Yrotation
											JOINT LeftHandThumb3
											{
												OFFSET 2.46977 0.00000 0.00000
												CHANNELS 3 Zrotation Xrotation Yrotation
												End site
												{
													OFFSET 0.00000 0.00000 0.00000
												}
											}
										}
									}
									JOINT LeftHandIndex1
									{
										OFFSET 14.26970 0.00000 2.88139
										CHANNELS 3 Zrotation Xrotation Yrotation
										JOINT LeftHandIndex2
										{
											OFFSET 5.48836 0.00000 0.00000
											CHANNELS 3 Zrotation Xrotation Yrotation
											JOINT LeftHandIndex3
											{
												OFFSET 3.01859 0.00000 0.00000
												CHANNELS 3 Zrotation Xrotation Yrotation
												End site
												{
													OFFSET 0.00000 0.00000 0.00000
												}
											}
										}
									}
									JOINT LeftHandMiddle1
									{
										OFFSET 14.26970 0.00000 -0.09147
										CHANNELS 3 Zrotation Xrotation Yrotation
										JOINT LeftHandMiddle2
										{
											OFFSET 6.17440 0.00000 0.00000
											CHANNELS 3 Zrotation Xrotation Yrotation
											JOINT LeftHandMiddle3
											{
												OFFSET 3.56744 0.00000 0.00000
												CHANNELS 3 Zrotation Xrotation Yrotation
												End site
												{
													OFFSET 0.00000 0.00000 0.00000
												}
											}
										}
									}
									JOINT LeftHandRing1
									{
										OFFSET 12.69180 0.00000 -3.06433
										CHANNELS 3 Zrotation Xrotation Yrotation
										JOINT LeftHandRing2
										{
											OFFSET 5.62556 0.00000 0.00000
											CHANNELS 3 Zrotation Xrotation Yrotation
											JOINT LeftHandRing3
											{
												OFFSET 3.56744 0.00000 0.00000
												CHANNELS 3 Zrotation Xrotation Yrotation
												End site
												{
													OFFSET 0.00000 0.00000 0.00000
												}
											}
										}
									}
									JOINT LeftHandPinky1
									{
										OFFSET 11.11390 0.00000 -6.03719
										CHANNELS 3 Zrotation Xrotation Yrotation
										JOINT LeftHandPinky2
										{
											OFFSET 4.52789 0.00000 0.00000
											CHANNELS 3 Zrotation Xrotation Yrotation
											JOINT LeftHandPinky3
											{
												OFFSET 2.46976 0.00000 0.00000
												CHANNELS 3 Zrotation Xrotation Yrotation
												End site
												{
													OFFSET 0.00000 0.00000 0.00000
												}
											}
										}
									}
								}
							}
						}
					}
					JOINT pCube4
					{
						OFFSET 0.00000 10.91090 1.10792
						CHANNELS 3 Zrotation Xrotation Yrotation
						End site
						{
							OFFSET 0.00000 0.00000 0.00000
						}
					}
				}
			}
		}
	}
	JOINT RightUpLeg
	{
		OFFSET -9.98441 0.00000 0.00000
		CHANNELS 3 Zrotation Xrotation Yrotation
		JOINT RightLeg
		{
			OFFSET 0.00000 -42.11790 0.00000
			CHANNELS 3 Zrotation Xrotation Yrotation
			JOINT RightFoot
			{
				OFFSET 0.00000 -45.00020 -0.00001
				CHANNELS 3 Zrotation Xrotation Yrotation
				JOINT RightForeFoot
				{
					OFFSET 0.00000 -3.74820 0.00000
					CHANNELS 3 Zrotation Xrotation Yrotation
					JOINT RightToeBase
					{
						OFFSET 0.00000 0.06325 14.43120
						CHANNELS 3 Zrotation Xrotation Yrotation
						End site
						{
							OFFSET 0.00000 0.00000 0.00000
						}
					}
				}
			}
		}
	}
	JOINT LeftUpLeg
	{
		OFFSET 9.98441 0.00000 0.00000
		CHANNELS 3 Zrotation Xrotation Yrotation
		JOINT LeftLeg
		{
			OFFSET 0.00000 -42.11800 0.00000
			CHANNELS 3 Zrotation Xrotation Yrotation
			JOINT LeftFoot
			{
				OFFSET 0.00000 -45.00070 0.00000
				CHANNELS 3 Zrotation Xrotation Yrotation
				JOINT LeftForeFoot
				{
					OFFSET 0.00000 -3.74824 0.00000
					CHANNELS 3 Zrotation Xrotation Yrotation
					JOINT LeftToeBase
					{
						OFFSET 0.00000 0.06325 14.43110
						CHANNELS 3 Zrotation Xrotation Yrotation
						End site
						{
							OFFSET 0.00000 0.00000 0.00000
						}
					}
				}
			}
		}
	}
}
MOTION
Frames: 4
Frame Time: 0.050000
-0.020059452033238966 -0.04694785568859802 0.03532975140474336 0.017952635568142153 -0.011284704918064973 -0.04534809948310252 -4.635650501958912 8.01434989880777 -0.5612699464793492 -0.751559013795368 2.9513179485504124 0.4210531180331287 -1.0133736571046128 0.21691432630368257 -1.3123194351467622 -0.7115952718431102 0.24229075799220495 -1.0481897874194062 -0.13585259611273692 7.355288637323915 0.07653197608678158 -0.13804935731282347 -1.3226039950582869 -3.2134464715651663 -0.11814043479294502 -15.41426005050922 -0.1689294833068024 4.0907768840383145 -0.10572255384516345 -9.839870402725257 58.68728634006874 -12.840023337937188 25.800868522149827 29.32611286204114 9.263561221370038 101.46112645609783 24.820328506759704 -0.12754875015805806 -10.759116177378873 4.520518753605684 -0.09090451213288436 -1.5868959522723747 -0.04487184833856103 -0.010332810453563013 -56.24234977166821 -0.029492131672540944 -0.012331731360935162 -56.271673376812615 -38.770228660536134 0.033412251310653306 -0.026012368904120696 -0.03170481181466415 -0.013139596765533793 -3.3891272060389026e-05 -0.015861934032618596 -0.024222505438313665 -0.009052868419133287 -36.68599646221289 -0.025789816988376374 -0.030557552953196898 -0.01526470552714464 -0.008210410624833856 0.029736624386133025 0.019681865594147828 -0.01388845858415192 -0.04049025208784386 -19.730353107468176 -0.010381627829332997 -0.005641217046018415 -0.040474879153461193 -0.011122246018637705 -0.01814033266646245 -0.014880163277321896 -0.031113546520197377 -0.022482274175752937 24.01868731646502 0.030690230875740625 -0.03701262000732757 28.82299180129546 -0.0018884430960199067 0.04902214037822793 28.896516098202923 0.00016450951991225528 -0.042870754675820064 -3.5295089392000865 -0.13118642315046822 8.541608813691447 -60.60141664099397 18.752592126384563 -20.618039852131293 -44.72936640761956 9.684573101439693 -100.26712963255366 -12.663496718212922 2.836270204529907 -1.7882181496682341 -0.43127079921704886 0.0792054900153066 -8.10475985132136 -0.04564519086322013 -0.0034683946160226427 44.532810505777896 0.03577021331223245 0.003432287681816611 44.603119800891996 12.43473476331481 0.015035537945379065 -0.017057280870434344 0.03965240840430009 0.04754591271422231 -0.04967856134160095 0.03161622126125316 0.015541219819035218 0.026223860699923853 11.084339626575737 -0.03209649778327044 -0.02549647331177567 -0.03032095332745773 0.04945384825066028 0.012300159117960438 0.02148415027173536 0.023938955312374444 0.02959277549121647 4.8140392985838565 0.03416247352680888 -0.014038434134708 -0.045613863919197827 0.03643377106744552 0.032036689321116446 -0.013028162507243191 -0.006531887128770159 0.02157679192982165 -5.620078040081225 -0.02245220354762682 0.03411618341100987 -6.736718415689044 -0.04089926709929981 -0.01875632229396414 -6.695398668368835 -0.02069456401592607 0.0016841516794436975 -0.036337546935067765 0.0068798209264269395 -0.029982962857727977 8.033005198936808 3.4903185280032414 -19.187509203636104 -0.0121839220331198 10.385250346379927 -0.028389788176875114 -5.605914918625197 -15.65397398217312 3.154702602635443 -0.04192138875301523 0.015229270723855352 -0.005724578489887445 -0.04876271043809773 4.696686078832642 -0.02606589439335982 12.40958308221218 -8.210824026480184 6.911778185398005 0.044644676577883007 46.33733907736689 0.01681138739304417 -4.353485009571783 -14.70060721768111 -3.8280264871280183 0.026841087034859337 -0.005879880555344527 -0.04276358675339862 0.032937173961695834 -10.737447888457696 -0.027339968188869537 
-0.028812298982002094 -0.016214359032225463 -0.022096161884878437 -0.018170172077393038 -0.04919841816070515 0.03984588984566395 -4.492161327620948 7.959217319918688 -0.5402615772791899 -0.7132041802267562 2.928843560201312 0.35865561173623284 -1.0411959781900784 0.21726005739293297 -1.5156993233322857 -0.601055693807792 0.23009651521322996 -1.0757304658681068 -0.06175911449066323 7.553967278622781 -0.15643611266887414 -0.05442826315957123 -1.293766402400176 -3.4421652979678354 -0.043022296861917664 -15.324996031146078 -0.259073727339268 3.8558681484367674 -0.0485467978853925 -9.744030044469698 56.43089675417999 -13.72688135964983 28.06136527653371 29.791002924046474 9.724985010594168 100.64465649313058 25.147260425287964 -0.1130527956732161 -11.052193457854932 4.537172778556076 -0.09861671838461816 -1.5453953761587973 0.03698599889337381 -0.022670204107291366 -56.26681296111496 -0.0318232269877761 0.01256290136718441 -56.217587864426285 -38.765394558454794 -0.02012175436638183 0.03646353076879255 -0.018158804733939615 -0.03368506991770906 0.025979800485103413 0.03338097213882533 -0.03543544633533786 -0.006972604463920872 -36.71857461471219 0.02258936192718193 0.03350563677706928 -0.030658107856248177 -0.030212500691727682 -0.03796905692132365 -0.04496613487607068 0.04342981016493161 0.03811537101199884 -19.722245992125096 -0.0421285442181085 -0.007941079996094518 0.02724084402483972 0.013777257478042043 -0.0441862128196721 0.033468438998794446 0.012531074132572907 -0.03698433090427673 24.01452501269694 -0.04255563230179874 -0.0014917752048143726 28.87282538990361 0.005005291616208705 0.010796734405070037 28.88354743199002 -0.005278747625843409 -0.014732283376049855 -3.3493113124784317 -0.061978584508555326 8.33657569447018 -58.697907496440344 19.891068156914123 -23.008074496648227 -41.86946434655919 9.199470150788377 -100.05692501971079 -13.218247356520287 2.591257985767245 -1.8074088085693627 -0.4449846862823512 0.06282761516224568 -8.106548634228243 -0.04611896924633707 0.02243072792865715 44.527866772026066 -0.02427806384116505 0.04591265508640499 44.53961630219093 12.439261162142804 0.015451805259454747 -0.0003908817781794491 0.022439356670856607 0.012636017758940188 0.02174512949736632 0.04478833972551944 -0.019595171795926698 -0.024047184587692665 11.086253939397551 0.011590453334622271 0.007044038955437039 0.044500008873917925 -0.004814645569380247 -0.021917641993635058 -0.0288020954894439 0.004694237102160704 -0.004951617431397627 4.780539047852685 0.03089519752712163 -0.008401551319528307 -0.029100649362598093 0.041918879459701165 -6.603954933413108e-05 0.008787886544267258 -0.01652517348050342 0.028066713344441288 -5.556904664097376 0.040649477997907094 0.0383714590676463 -6.7006540874476075 0.02406919291654482 -0.03833360146469625 -6.716280752785987 -0.022761816427491716 0.04254963652700006 0.0044630015136023615 0.04131384256752471 -0.03912485695159189 8.016448763600167 3.467061218329526 -19.181040189584987 -0.041829381986832274 10.384378497307466 -0.03558009497469873 -5.657075954943936 -15.6701709034402 3.1581661210816074 -0.049822008109161306 0.004094768201239479 -0.02366524899323711 0.013157542088722609 4.681012235414265 -0.03362223547494546 12.436731437710444 -8.210369064265773 6.846824909921037 0.02932131957442428 46.33549247549002 0.0030101863072916984 -4.293055444494338 -14.761483273418124 -3.8370916149980094 -0.015076609984395452 -0.031557873349412416 0.019607637366955706 -0.018314239936577423 -10.711673678920695 0.037712064873071084 
-0.030786888170365796 -0.03889452094501836 0.01680058415154455 -0.03237344569024273 -0.02121950332276158 0.021151365869820523 -4.328293447641766 7.832860119581239 -0.5510630688279096 -0.692697143771426 2.949654970262328 0.3682445972499791 -1.0263975596071055 0.1842209346715078 -1.636887182143457 -0.5018290559417069 0.25055094588562155 -1.0767887583718647 0.034815049879585 7.69854137927119 -0.3089708846042993 -0.12464441307773858 -1.161848400442221 -3.7089094759592975 -0.01909019194636666 -15.120898449807544 -0.24513004133555652 3.524422648675316 -0.040515894606328484 -9.700971935443382 54.41533168328593 -14.539085275629368 30.422310297724408 30.26646181639638 10.183564598412199 99.32970351844517 25.631280211108272 -0.06217053289430487 -11.525486425647756 4.564362333487771 -0.09625220295883956 -1.5838367427925695 -0.023247020162502272 -0.000533027422317149 -56.22912630241212 0.016653053358119264 0.012819421709176576 -56.24213040909319 -38.8141727318546 0.0018034621950940282 0.04967229924529056 -0.037276615602604875 -0.012265792140913506 -0.009952910215673549 0.02055589063020767 0.002960948998982173 -0.04131719923699868 -36.71135821459049 -0.0018578897881980892 -0.03775414811611138 -0.006038846686612522 0.006030429570019831 -0.023089858521496486 -0.006802303287996049 -0.03692075243041697 0.012141937079119921 -19.71921279793912 -0.03088402723516727 0.006534814111764661 -0.03427771364122101 0.015803108964415353 -0.012503279175652637 0.028363820192158162 -0.03296441721951895 0.03971677135603337 24.02983008726375 0.04292815369920801 -0.04009693103439332 28.86825717533855 0.009547369542697077 0.001654458725051518 28.820000127705015 0.015850213109072756 0.02428548384071737 -2.9697811190085988 0.004508602486605777 8.006620929704411 -56.45247151881162 20.931918501760837 -25.642629440954984 -37.416866993687286 8.206890251855887 -99.08759650045617 -14.04671788784758 2.1409214733687443 -1.7378332384925423 -0.4447892573597676 0.06414851617264139 -8.09616003210455 0.017452601631837907 -0.008981080680175186 44.54868465233966 0.007668954537414055 -0.03376528383892991 44.54572570775528 12.413494962181584 0.04092066412415664 0.012517493167256356 -0.04009183586485488 -0.005552238341862228 -0.022340637517789065 -0.002516924243148008 0.037729502548092014 0.026781448531894278 11.105490501731575 0.0019627853129044917 -0.03746840660131381 -0.023285803225950256 0.0006344387978976039 0.047675968809434636 -0.009387830322535151 -0.02460799809134916 -0.039721870554144924 4.737218052325986 0.037426110106655724 0.049734003221511246 0.02614128920718681 0.012162697617961205 -0.0029005414813362993 -0.016502430042432775 0.013139765615950648 0.004293301435639129 -5.552813578143391 0.03300990356110913 -0.002448627360244296 -6.698163290086817 -0.02973385017615409 0.03385231881756237 -6.76464299337984 -0.043323289638363134 -0.0473319397956566 0.025860988341769416 0.03640271107562567 -0.035846491535520185 8.024832838167933 3.4876395652973096 -19.18722573731555 0.04456091369913076 10.37345635654992 0.03776764847330367 -5.572420319831035 -15.699421017317922 3.1665349856211664 -0.02100396070194867 0.010718689626546787 0.020600157382459662 -0.009086378536080858 4.6937763910702825 0.03524945730581993 12.484693462726929 -8.2620186557511 6.865486541161772 -0.012336526938841427 46.412059062912995 0.037961008701977945 -4.28637072891602 -14.746078800263478 -3.8501910777000607 -0.01922016676741425 0.012708826878514167 -0.04183673320243279 -0.018745797035311262 -10.744636329232158 0.0035043219665716286 
0.017384323260701884 -0.01586193818246263 -0.02534948909387947 -0.0348109928062177 -0.007597646082648773 0.025416667441137242 -4.1848599429468 7.70681840199043 -0.5897004295932862 -0.7048246876319979 2.944711666272215 0.3701188075491211 -1.0209228708681508 0.17349659356831915 -1.8556705589663771 -0.435204590716287 0.24560420179368325 -1.143162014181172 0.09858832175602605 7.816291683853588 -0.41263899156965056 -0.09183216609578587 -1.1664407577715465 -3.8551170030946835 0.010910638944205873 -15.142613512593552 -0.27322912170286945 3.206937360247512 0.07188356358600992 -9.62814344433959 53.22394986685626 -15.019938912183031 32.33256373032835 30.35739797227286 10.54906640314189 97.28421014701274 25.956762347182238 0.005803314261562384 -11.70456242403 4.576236898939809 -0.14516471855371796 -1.6245604599167112 -0.0458815296066906 -0.0039546540194476025 -56.24478098820635 0.02693236854267645 0.02656939849442478 -56.262173562205795 -38.78043605649215 -0.0007750883224328058 -0.028877786578383358 0.0410195883462693 0.03142242425063176 -0.020493858630735544 0.022529678018791494 -0.0199605744582589 -0.011225639311542603 -36.70741772812092 0.0390334127364993 0.0044595243378730345 0.04779616406731861 -0.028108937431035468 -0.01781379979503914 0.009833852753125965 0.03306786757297746 -0.031156798969098558 -19.787102558785268 -0.023922861532871934 -0.04060489392022778 -0.015494158478194322 -0.026806215204606097 0.013222157142889816 -0.04172143859082345 0.00871989937378235 0.0304789530842768 24.093280781353148 0.0029515195139914784 -0.005324568243756744 28.828418888581467 -0.007231252266862513 0.04987132040966426 28.890272888363146 -0.04602073367919114 -0.012107745423946869 -2.703928216827763 0.0056682684881297005 7.772956883829635 -54.70724219044819 21.65071916624029 -28.126090797538218 -33.16068762873923 7.113764890014664 -97.77857702570374 -14.807362219348072 1.6502216854914422 -1.708117043727533 -0.49294495102677754 0.11279354730716752 -8.162884370772169 -9.969710101886851e-05 0.018475450683893314 44.537657478056545 -0.001390509934981751 0.036135215852046806 44.57106919717561 12.49247833371259 -0.020878761689479136 -0.00023961821930289638 0.003650165612462069 -0.014790531848239601 -0.03349444924960657 -0.01078732232972763 0.007755381386473935 -0.006943233234733598 11.081565269699206 0.03604405476544988 0.04102404255880115 -0.004010937441321075 -0.03263698086136567 0.03888680880876029 0.009070766686469596 0.015202638749017202 -0.009390562185373904 4.77557959184603 -0.03501237598276974 0.013257396616396838 -0.02661139385025922 -0.026774692652602336 -0.04136336988174103 -0.010446476245654982 0.04489123316733705 0.03434625067035204 -5.632048244744005 -0.012412732682919462 0.003585770806576425 -6.746118762419998 -0.049156984543827366 0.0341188756398079 -6.717374310401991 -0.03972345145672557 -0.021071940955258224 -0.003820695892315688 -0.02918556000455802 -0.0045294869857144685 8.000607322913881 3.4480917946835756 -19.241100951449305 0.02970802314414927 10.39515943129724 -0.004391868659867473 -5.587773958525652 -15.709721026408122 3.154286305274995 0.03085312180027256 -0.010595560586060223 -0.02487528767993534 0.004141996739071107 4.725656519602288 -0.04218922928320603 12.475878614954292 -8.264144519260114 6.859101339582994 -0.009257743617119578 46.390439773665875 -0.0024148117564813205 -4.323619602092382 -14.731729570400743 -3.837303910196317 0.01189824192004449 -0.003345242610030088 -0.025182192426110476 -0.033243573559102624 -10.759896740430477 -0.026762152597126172 
